<svg xmlns="http://www.w3.org/2000/svg" viewBox="0 0 24 24" fill="currentColor">
  <path d="M12.04 2c-5.46 0-9.91 4.45-9.91 9.91 0 1.75.46 3.45 1.32 4.95L2.05 22l5.25-1.38c1.45.79 3.08 1.21 4.74 1.21 5.46 0 9.91-4.45 9.91-9.91S17.5 2 12.04 2zm4.52 7.33c-.18-.8-.64-1.26-1.44-1.44-.24-.05-.48-.08-.72-.08-.17 0-.33.02-.49.05-.64.12-1.27.36-1.85.72-.58.36-1.09.82-1.49 1.36-.4.54-.68 1.15-.82 1.79-.14.64-.14 1.3 0 1.94.14.64.42 1.25.82 1.79.4.54.91 1 1.49 1.36.58.36 1.21.6 1.85.72.16.03.32.05.49.05.24 0 .48-.03.72-.08.8-.18 1.26-.64 1.44-1.44.05-.24.08-.48.08-.72 0-.17-.02-.33-.05-.49-.12-.64-.36-1.27-.72-1.85-.36-.58-.82-1.09-1.36-1.49-.54-.4-1.15-.68-1.79-.82-.64-.14-1.3-.14-1.94 0-.64.14-1.25.42-1.79.82-.54.4-1 .91-1.36 1.49-.36.58-.6 1.21-.72 1.85-.03.16-.05.32-.05.49 0 .24.03.48.08.72z"/>
  <path d="M12.04 4.2c4.24 0 7.71 3.47 7.71 7.71 0 .21-.01.42-.03.63-.18.64-.54 1.2-1.02 1.65-.48.45-1.08.76-1.72.88-.21.04-.42.06-.63.06-.17 0-.34-.01-.51-.04-.64-.12-1.25-.36-1.79-.72-.54-.36-1.02-.82-1.4-1.36-.38-.54-.64-1.15-.76-1.79-.12-.64-.1-1.3.06-1.94.16-.64.46-1.25.86-1.79.4-.54.91-1.02 1.49-1.4.58-.38 1.23-.64 1.91-.76.17-.03.34-.04.51-.04.21 0 .42.02.63.06.64.12 1.24.43 1.72.88.48.45.84 1.01 1.02 1.65.02.21.03.42.03.63 0-4.24-3.47-7.71-7.71-7.71z"/>
</svg>